**ABCDEFGHIJKLMNOPQRSTUVWXYZabcdefghijklmnopqrstuvwxyz**************************
**PARASOLID !"#$%&'()*+,-./:;<=>?@[\]^_`{|}~0123456789**************************
**PART1;
MC=x64/Windows NT;
MC_MODEL=genuineintel family 6 model 14 stepping 10, intel(r) core(tm) i3-9100f cpu @ 3.60ghz;
MC_ID=desktop-a9irs1g;
OS=windows nt (x64);
OS_RELEASE=6.3 windows 10 pro (build 10586) ;
FRU=mdc_ugii_v7.0_djl_can_vrh;
APPL=unigraphics;
SITE=unknown;
USER=HZT;
FORMAT=text;
GUISE=transmit;
KEY=Vibrator;
FILE=C:\Users\HZT\Desktop\Dispenser\Single Component\Vibrator.x_t;
DATE=2-may-2021;
**PART2;
SCH=SCH_2900123_28101;
USFLD_SIZE=0;
**PART3;
**END_OF_HEADER*****************************************************************
T51 : TRANSMIT FILE created by modeller version 290012323 SCH_2900123_28101_1300
6203 0 12 33 CCCCCCI4 mesh1006 0 I8 polyline1008 0 CCCCCCCDI5 owner1040 0 CCCCCC
I13 boundary_mesh1006 0 I17 boundary_polyline1008 0 CCCA16 index_map_offset0 0 1
 dA9 index_map82 0 A17 node_id_index_map82 0 A20 schema_embedding_map82 0 A5 chi
ld12 0 A14 lowest_node_id0 0 1 dZ1 2008 2 3 0 0 0 0 0 0 1e3 1e-8 0 4 0 1 0 1 1 5
 6 7 8 0 0 9 10 11 0 0 0 0 0 0 81 255 1 2 2008 12 1 13 0 0 0 14 70 11 CI9 list_t
ype0 0 1 uI10 notransmit0 0 1 lCCCDCCDI12 finger_index0 0 1 dI12 finger_block101
2 0 CZ3 0 4 T1 0 0 7 20 1 15 15 13 255 5 48 0 1 0 16 0 0 17 0 54 255 6 1851 0 18
 19 0 20 +.194236289055 .175767642095 .204846335492001 0 1 0 .0105 .001 0 0 1 38
 255 7 1830 0 1 21 0 22 +23 19 24 25 26 29 255 8 1778 0 11 27 0 .1974843528222 .
176767642095 .2148313283194495 19 8 CCCCCCCA5 owner12 0 Z9 1 0 1 17 0 28 V0 16 2
55 10 1796 29 ?30 0 31 21 0 0 1 18 255 11 1775 0 32 0 33 8 ?1 17 255 32 0 34 35
 36 11 37 38 0 39 +18 33 1772 0 30 11 40 27 ?1 17 30 0 41 42 43 33 44 10 0 36 +1
8 40 1763 0 45 33 46 47 ?1 29 27 1774 0 33 47 8 .1979773981889515 .175767642095
 .2157208057065845 29 47 1765 0 40 48 27 .1996526732640865 .176777084628435 .218
743081945344 29 48 1752 0 46 49 47 .201475877017509 .175767642095 .2137815672255
99 18 46 1750 0 50 40 51 48 ?1 29 49 1749 0 51 52 48 .2009828316507575 .17676764
2095 .212892089838464 18 51 1745 0 53 46 54 49 ?1 29 52 1744 0 54 55 49 .2031557
21237377 .1767751736475905 .216812086419657 18 54 1742 0 56 51 57 52 ?1 29 55 17
35 0 57 58 52 .202703247623398 .1757756927622475 .2159958024120395 18 57 1733 0
 59 54 60 55 ?1 29 58 1732 0 60 61 55 .199204768794841 .175778243880335 .2179350
40893025 18 60 1730 0 62 57 63 58 ?1 29 61 1438 0 63 64 58 .1979773981889515 .17
3767642095 .2157208057065845 18 63 1436 0 42 60 65 61 ?1 29 64 1434 0 65 66 61 .
199204768794841 .173767642095 .217935040893025 18 65 1432 0 67 63 68 64 ?1 29 66
 1421 0 68 69 64 .1989158613039155 .174767642095 .215351172642913 18 68 1419 0 7
0 65 71 66 ?1 29 69 1418 0 71 72 66 .200665100718194 .174767642095 .214381553402
42 18 71 1416 0 73 68 74 69 ?1 29 72 1415 0 74 75 69 .20013166726051 .1747676420
95 .2175445446497525 18 74 1413 0 76 71 77 72 ?1 29 75 1412 0 77 78 72 .20188090
66747885 .174767642095 .2165749254092595 18 77 1410 0 79 74 80 75 ?1 29 78 1403
 0 80 81 75 .202703247623398 .173767642095 .2159958024120395 18 80 1401 0 82 77
 83 78 ?1 29 81 1399 0 83 84 78 .201475877017509 .173767642095 .213781567225599
 18 83 1397 0 85 80 86 81 ?1 29 84 974 0 86 87 81 .199657427092671 .172767642095
 .218751658079131 18 86 971 0 88 83 89 84 ?1 29 87 970 0 89 90 84 .2031559059212
29 .172767642095 .2168124195981455 18 89 967 0 91 86 92 87 ?1 29 90 966 0 92 93
 87 .2040445766341975 .172767642095 .218415624003052 18 92 963 0 94 89 95 90 ?1
 29 93 840 0 95 96 90 .2042784390601745 .176767642095 .2188375229876785 18 95 83
8 0 97 92 98 93 ?1 29 96 800 0 98 99 93 .2042784390601745 .179267642095 .2188375
229876785 18 98 798 0 100 95 101 96 ?1 29 99 796 0 101 102 96 .200762530979934 .
179267642095 .220745318266289 18 101 794 0 103 98 104 99 ?1 29 102 740 0 105 106
 99 .201735397266935 .172767642095 .2225004155075325 18 105 231 0 107 108 109 10
2 ?1 29 106 739 0 108 110 102 .2052529799616165 .172767642095 .2205956413133455
 18 108 232 0 111 112 105 106 ?1 29 110 738 0 113 114 106 .2052529799616165 .176
767642095 .2205956413133455 18 113 227 0 115 116 117 110 ?1 29 114 520 0 104 118
 110 .1943444683817135 .172767642095 .2123455552669675 18 104 518 0 119 101 120
 114 ?1 29 118 517 0 120 121 114 .200538661798604 .172767642095 .208912057789536
5 18 120 515 0 122 104 123 118 ?1 29 121 514 0 123 124 118 .193804077511619 .172
767642095 .213822035641947 18 123 512 0 125 120 126 121 ?1 29 124 511 0 126 127
 121 .1938522590209855 .172767642095 .212821454358385 18 126 509 0 128 123 129 1
24 ?1 29 127 508 0 129 130 124 .194307232703709 .172767642095 .2143460705935015
 18 129 506 0 131 126 132 127 ?1 29 130 495 0 132 133 127 .2012030783393285 .172
767642095 .208746828674634 18 132 493 0 134 129 135 130 ?1 29 133 492 0 135 136
 130 .202077151701894 .172767642095 .209236195734935 18 135 490 0 137 132 138 13
3 ?1 29 136 461 0 138 139 133 .194307232703709 .176767642095 .2143460705935015 1
8 138 459 0 140 135 141 136 ?1 29 139 458 0 141 142 136 .193804077511619 .176767
642095 .213822035641947 18 141 456 0 143 138 144 139 ?1 29 142 455 0 144 145 139
 .193852259020986 .176767642095 .212821454358385 18 144 453 0 146 141 147 142 ?1
 29 145 452 0 147 148 142 .1943444683817135 .176767642095 .2123455552669675 18 1
47 450 0 149 144 150 145 ?1 29 148 449 0 150 151 145 .200538661798604 .176767642
095 .2089120577895365 18 150 447 0 152 147 153 148 ?1 29 151 446 0 153 154 148 .
2012030783393285 .176767642095 .208746828674634 18 153 444 0 155 150 156 151 ?1
 29 154 443 0 156 157 151 .202077151701894 .176767642095 .209236195734935 18 156
 441 0 158 153 159 154 ?1 29 157 435 0 159 160 154 .202254926915692 .17276764209
5 .2099405917536185 18 159 433 0 161 156 162 157 ?1 29 160 432 0 162 163 157 .20
2254926915692 .176767642095 .2099405917536185 18 162 430 0 164 159 165 160 ?1 29
 163 334 0 165 166 160 .201735397266935 .176767642095 .2225004155075325 18 165 2
28 0 167 162 168 163 ?1 29 166 335 0 168 169 163 .200762530979934 .176767642095
 .220745318266289 18 168 226 0 170 165 112 166 ?1 29 169 336 0 109 171 166 .1969
895191553265 .172767642095 .213938624753493 18 109 230 0 172 105 116 169 ?1 29 1
71 341 0 112 173 169 .200487997983884 .172767642095 .2119993862725075 18 112 233
 0 174 168 108 171 ?1 29 173 348 0 116 175 171 .200487997983884 .176767642095 .2
119993862725075 18 116 244 0 176 109 113 173 ?1 29 175 350 0 117 177 173 .196989
5191553265 .176767642095 .213938624753493 18 117 242 0 178 113 179 175 ?1 29 177
 1063 0 179 0 175 .20054609780564 .172767642095 .2203548624840375 18 179 1027 0
 180 117 0 177 ?1 17 180 0 34 107 181 179 182 183 0 184 +15 255 34 1216 0 185 18
6 0 17 107 0 34 167 180 105 184 187 0 188 +17 181 0 34 180 189 86 190 191 0 182
 +17 182 0 192 193 193 86 180 183 0 194 -16 183 972 195 ?180 191 187 196 191 187
 1 17 184 0 197 94 198 179 107 187 0 193 -15 197 980 0 94 199 0 17 94 0 197 200
 184 92 201 202 0 203 -17 198 0 197 184 200 105 111 204 0 0 -16 187 976 205 ?107
 183 206 196 183 191 1 17 193 0 192 182 182 179 194 207 0 201 -15 192 1048 0 182
 208 0 17 194 0 209 210 201 86 193 207 0 0 +16 207 1022 211 ?194 212 213 214 212
 215 1 17 201 0 209 194 216 179 94 202 0 0 +15 209 1040 0 210 217 0 17 216 0 209
 201 210 92 218 212 0 0 +16 202 979 219 ?201 220 221 214 215 212 1 81 1 219 1105
 222 202 0 0 205 223 224 16 220 1402 225 ?226 227 202 228 0 0 1 16 221 811 229 ?
185 202 230 231 0 0 1 31 255 214 1061 0 215 232 233 0 +.2018510018634345 .172767
642095 .2185836410410915 0 -1 0 -.874619707139397 0 .484809620246335 .0022 16 21
5 1012 234 ?210 235 212 214 207 202 1 16 212 1016 236 ?216 215 207 214 202 207 1
 81 1 236 1102 222 212 0 0 195 234 237 80 255 1 222 238 239 9000 1 1 1 1 1 1 1 1
 0 FFFFTFTFFFFFFF3 81 1 195 1101 222 183 0 0 240 236 241 81 1 234 1103 222 215 0
 0 236 205 242 84 255 32 237 be67f18dbdb2299e1c337a85da206fb081 1 205 1104 222 1
87 0 0 234 219 243 84 32 242 d853a3b290eb833887845f3d911d394d84 32 243 2c80f0601
6519e189ec0da1add6d08ba81 1 240 1100 222 244 0 0 245 195 246 84 32 241 b01834cdc
8e09b3ee055e62cf253a53116 244 185 240 ?203 247 248 249 250 248 1 81 1 245 1099 2
22 248 0 0 211 240 251 84 32 246 4eecd37078dc489e871e4ff273688a8b16 248 964 245
 ?252 244 250 249 244 250 1 81 1 211 1098 222 207 0 0 253 245 254 84 32 251 cab4
4ffab24ae56e18d6e8c6737b7cec81 1 253 1097 222 191 0 0 255 211 256 84 32 254 4b87
b0b5bfdecd5a9cc350747c3c34a816 191 177 253 ?181 204 183 196 187 183 1 81 1 255 1
096 222 250 0 0 257 253 258 84 32 256 666497afcc7163232b1ca9485f8454bf16 250 968
 255 ?174 248 204 249 248 244 1 81 1 257 1095 222 235 0 0 259 255 260 84 32 258
 a437701c7ac20f3aebb1de54b5dc92b316 235 1024 257 ?261 262 215 233 0 0 1 81 1 259
 1094 222 262 0 0 263 257 264 84 32 260 f9e1d9fa318bcaf60b45e99c620066b816 262 1
010 259 ?265 266 235 232 0 0 1 81 1 263 947 222 267 0 268 269 259 270 84 32 264
 0f703551ea48d5fca42211a73f1866b414 255 267 43 271 ?272 273 274 5 275 -0 0 272 2
73 28 81 1 268 1950 276 267 263 271 277 278 279 81 1 269 946 222 280 0 0 281 263
 282 84 32 270 b8fba06e250cb4ad34bf4d563609ef0216 280 795 269 ?170 283 284 285 0
 0 1 81 1 281 943 222 286 0 0 287 269 288 84 32 282 f40d8896f1b93962b129b2e5325e
3c4e16 286 802 281 ?289 230 283 290 0 0 1 81 1 287 941 222 283 0 0 291 281 292 8
4 32 288 ea94f327d636e2023c4ef3eda011fae016 283 799 287 ?293 286 280 294 0 0 1 8
1 1 291 765 222 295 0 296 297 287 298 84 32 292 7ad6d99eb2ddc76c259356295a19318c
14 295 95 299 ?186 300 301 5 302 +0 0 186 300 28 81 1 296 1956 276 295 291 299 3
03 304 305 81 1 297 764 222 272 0 278 306 291 307 84 32 298 c24a1d2d732eb1854163
5c3d46d40dee14 272 39 308 ?300 267 309 5 310 +0 0 300 267 28 81 1 278 1952 276 2
72 297 308 268 303 311 81 1 306 763 222 273 0 277 312 297 313 84 32 307 75032943
e83ce9f3586641a365a8823714 273 9 314 ?267 315 316 5 317 +0 0 267 315 28 81 1 277
 1948 276 273 306 314 318 268 319 81 1 312 762 222 320 0 0 321 306 322 84 32 313
 3dc08b97dd6272fd0e20b7851fd26e1016 320 183 312 ?323 324 325 326 0 0 1 81 1 321
 761 222 324 0 0 327 312 328 84 32 322 0b0684138a12befe0ea02dbb4e0a41d716 324 17
9 321 ?167 329 320 330 0 0 1 81 1 327 760 222 204 0 0 331 321 332 84 32 328 6800
fba87d649dee1b0c9cb7303697b016 204 181 327 ?111 250 191 333 0 0 1 81 1 331 759 2
22 334 0 0 335 327 336 84 32 332 90381237aa7969ff9c81996dfa48b97316 334 139 331
 ?337 338 339 340 266 266 1 81 1 335 758 222 341 0 0 342 331 343 84 32 336 d95e5
3f89dfc0e120d3c05676f9efcc416 341 169 335 ?344 345 346 347 0 0 1 81 1 342 755 22
2 348 0 0 349 335 350 84 32 343 fd4b8bb134fb7b38456697c5bc45fec116 348 132 342 ?
351 352 353 354 0 0 1 81 1 349 754 222 339 0 0 355 342 356 84 32 350 645a67987c0
2cd9a72659526c4b553d916 339 83 349 ?357 334 352 358 0 0 1 81 1 355 715 222 359 0
 360 361 349 362 84 32 356 f12455bcf86854a05ab3cd92c7924d4c14 359 589 363 ?364 1
99 365 5 366 +0 0 364 199 28 81 1 360 1974 276 359 355 363 367 368 369 81 1 361
 714 222 370 0 371 372 355 373 84 32 362 6e9cae110c5bc1e5d0dc15d228865b8c14 370
 631 374 ?375 364 376 5 377 +0 0 375 364 28 81 1 371 1978 276 370 361 374 368 37
8 379 81 1 372 713 222 375 0 378 380 361 381 84 32 373 ed349edd47a43f39298bd8a62
3729c4214 375 652 382 ?383 370 384 5 385 +0 0 383 370 28 81 1 378 1980 276 375 3
72 382 371 386 387 81 1 380 712 222 364 0 368 388 372 389 84 32 381 cb90236a04ff
5ddfcd9daeaa2bdd95d614 364 610 390 ?370 359 391 5 392 +0 0 370 359 28 81 1 368 1
976 276 364 380 390 360 371 393 81 1 388 709 222 394 0 395 396 380 397 84 32 389
 d1e517e27aba9af5efb1511f3285022214 394 279 398 ?199 399 400 5 401 +0 0 199 399
 28 81 1 395 1970 276 394 388 398 402 367 403 81 1 396 708 222 399 0 402 404 388
 405 84 32 397 64d3907f4b52585377145aab54f8d56914 399 275 406 ?394 407 408 5 409
 +0 0 394 407 28 81 1 402 1968 276 399 396 406 410 395 411 81 1 404 707 222 407
 0 410 412 396 413 84 32 405 37932d49ddbe3456f11a6b6a310b2ca214 407 271 414 ?399
 415 416 5 417 +0 0 399 415 28 81 1 410 1966 276 407 404 414 418 402 419 81 1 41
2 706 222 415 0 418 420 404 421 84 32 413 ac359f68773cf1df2f8cde6c347f109714 415
 267 422 ?407 423 424 5 425 +0 0 407 423 28 81 1 418 1964 276 415 412 422 426 41
0 427 81 1 420 705 222 423 0 426 428 412 429 84 32 421 e9a86518398c2ef9b5fabfb93
dfc7f6914 423 263 430 ?415 431 432 5 433 +0 0 415 431 28 81 1 426 1962 276 423 4
20 430 434 418 435 81 1 428 704 222 436 0 0 437 420 438 84 32 429 a8dd21a34c6b78
85cf408ecdce183d5a16 436 462 428 ?146 439 338 440 0 0 1 81 1 437 703 222 441 0 0
 442 428 443 84 32 438 0af7c079aeb564df79b4088902c266c516 441 501 437 ?137 444 4
45 446 0 0 1 81 1 442 702 222 445 0 0 447 437 448 84 32 443 45d4d2ee6a05bda04b33
0548e2c0c49d16 445 496 442 ?449 441 450 451 0 0 1 81 1 447 701 222 452 0 0 453 4
42 454 84 32 448 637098104b7552c18724b0160de1294916 452 556 447 ?455 284 456 457
 0 0 1 81 1 453 700 222 456 0 0 458 447 459 84 32 454 8509de572a4dba82c405718961
05c41c16 456 551 453 ?128 452 460 461 0 0 1 81 1 458 699 222 460 0 0 462 453 463
 84 32 459 be88dcb3d1319c547a9257ea3a3a9f5616 460 546 458 ?122 456 464 465 0 0 1
 81 1 462 698 222 464 0 0 466 458 467 84 32 463 16eba9a6f9dfa52a201b20bd43d48d07
16 464 541 462 ?468 460 469 470 0 0 1 81 1 466 697 222 469 0 0 471 462 472 84 32
 467 63aac97d41ed9adf01be6ff13d6e800c16 469 536 466 ?161 464 473 474 0 0 1 81 1
 471 696 222 473 0 0 475 466 476 84 32 472 837d8b08e6a60f54310dcbf796a7092516 47
3 531 471 ?134 469 477 478 0 0 1 81 1 475 695 222 477 0 0 479 471 480 84 32 476
 1dacaebc5d313c548ccd45dc6de338bd16 477 526 475 ?125 473 444 481 0 0 1 81 1 479
 694 222 444 0 0 482 475 483 84 32 480 4f7d4235735d8b928431de10d919f5be16 444 52
1 479 ?119 477 441 484 0 0 1 81 1 482 693 222 338 0 0 485 479 486 84 32 483 3707
ac618df6916eedc7260eee017d4f16 338 436 482 ?487 436 334 488 0 0 1 81 1 485 692 2
22 284 0 0 489 482 490 84 32 486 bcc2bbb75f72f5bbede688ef6a500b7f16 284 561 485
 ?131 280 452 491 0 0 1 81 1 489 691 222 439 0 0 492 485 493 84 32 490 1e470a855
0ce59e1a4b5eacf1c87021216 439 469 489 ?140 494 436 495 0 0 1 81 1 492 690 222 45
0 0 0 496 489 497 84 32 493 ba2d8f1a50f73c1042068f4009e9593a16 450 483 492 ?158
 445 494 498 0 0 1 81 1 496 689 222 494 0 0 499 492 500 84 32 497 ab84bd172b031f
48e8bb71c42ad0ffa116 494 476 496 ?152 450 439 501 0 0 1 81 1 499 688 222 345 0 0
 502 496 503 84 32 500 be33d14075b1ea04d2c1fa8c820650b016 345 216 499 ?504 505 3
41 506 0 0 1 81 1 502 687 222 505 0 0 507 499 508 84 32 503 9af8797498ee69cd680c
79b960a91b9916 505 442 502 ?509 510 345 511 0 0 1 81 1 507 686 222 510 0 0 512 5
02 513 84 32 508 9ca68883401fdc749f6cfc62ef607a4c16 510 448 507 ?514 515 505 516
 0 0 1 81 1 512 685 222 515 0 0 517 507 518 84 32 513 65c3cbe714a5b0073ad22e596b
736d5e16 515 454 512 ?519 206 510 520 0 0 1 81 1 517 684 222 206 0 0 521 512 522
 84 32 518 6e99aff460f0ed4985dec71023c8e3b016 206 460 517 ?178 187 515 523 0 0 1
 81 1 521 683 222 247 0 0 524 517 525 84 32 522 8c5087de5cd7731b9cdee75cdd8ada70
16 247 189 521 ?526 527 244 528 0 0 1 81 1 524 682 222 527 0 0 529 521 530 84 32
 525 051b047acebd0c488ea5131a6ac5d2bb16 527 491 524 ?531 532 247 533 0 0 1 81 1
 529 681 222 532 0 0 534 524 535 84 32 530 2a0ddf70e25750d1191b8c453aeb19b616 53
2 516 529 ?536 537 527 538 0 0 1 81 1 534 680 222 537 0 0 539 529 540 84 32 535
 c5e77c7c74ac96703dac55aa87ba038316 537 510 534 ?541 542 532 543 0 0 1 81 1 539
 679 222 542 0 0 544 534 545 84 32 540 bde1b3b2a634462b37b04506edc0e9df16 542 50
7 539 ?172 546 537 547 0 0 1 81 1 544 380 222 546 0 0 548 539 549 84 32 545 dbfe
16ed9146d620531415fd070b932216 546 207 544 ?550 325 542 551 0 0 1 81 1 548 375 2
22 325 0 0 552 544 553 84 32 549 0ef5556a7412f3a3bfcff8b30c75a44216 325 187 548
 ?554 320 546 555 0 0 1 81 1 552 371 222 353 0 0 556 548 557 84 32 553 00bbaeb68
09ffe8b5f4256da55fd625e16 353 126 552 ?558 348 329 559 0 0 1 81 1 556 114 222 30
0 0 303 560 552 561 84 32 557 441aa755c48ab05c01b96650a59ff2a414 300 26 562 ?295
 272 563 5 564 -0 0 295 272 28 81 1 303 1954 276 300 556 562 278 296 565 81 1 56
0 113 222 352 0 0 566 556 567 84 32 561 69cddcc8b7a130bf553bc0422714603516 352 7
7 560 ?568 339 348 569 0 0 1 81 1 566 68 222 329 0 0 0 560 570 84 32 567 6276ecc
8ddea27ddf4c00117833fcfcb16 329 33 566 ?571 353 324 572 0 0 1 84 32 570 dd5fbafb
c2a183970810a7d3e1e9158917 571 0 573 571 571 0 574 329 0 0 +31 572 37 0 329 354
 569 0 +.213448310643507 .180767642095 .2399304946878725 0 -1 0 -.51653335314569
8 0 .856267069954265 .023 31 354 7 0 348 559 572 0 +.213448310643507 .1767676420
95 .2399304946878725 0 -1 0 -.516533353145698 0 .856267069954265 .021 31 569 80
 0 352 572 358 0 +.213448310643507 .180767642095 .2399304946878725 0 -1 0 0 0 -1
 .0225 31 358 86 0 339 569 488 0 -.213448310643507 .177767642095 .23993049468787
25 0 -1 0 0 0 -1 .021 30 255 488 438 0 338 358 440 0 +.202254926915692 .15276764
2095 .2099405917536185 0 1 0 31 440 464 0 436 488 495 0 +.194351680336828 .17676
7642095 .2128455032519655 0 1 0 0 0 1 5e-4 31 495 471 0 439 440 501 0 +.19430349
8827461 .176767642095 .213846084535528 0 1 0 0 0 1 5e-4 31 501 478 0 494 495 498
 0 +.2009588199815105 .176767642095 .209183105942706 0 1 0 0 0 1 5e-4 31 498 485
 0 450 501 451 0 +.2018328933440765 .176767642095 .209672473003007 0 1 0 0 0 1 5
e-4 30 451 498 0 445 498 446 0 +.2012030783393285 .152767642095 .208746828674634
 0 1 0 30 446 503 0 441 451 484 0 -.202077151701894 .152767642095 .2092361957349
35 0 1 0 31 484 523 0 444 446 481 0 -.194351680336828 .172767642095 .21284550325
19655 0 1 0 0 0 1 5e-4 31 481 528 0 477 484 478 0 -.194303498827461 .17276764209
5 .213846084535528 0 1 0 0 0 1 5e-4 31 478 533 0 473 481 474 0 -.200958819981510
5 .172767642095 .209183105942706 0 1 0 0 0 1 5e-4 31 474 538 0 469 478 470 0 -.2
018328933440765 .172767642095 .209672473003007 0 1 0 0 0 1 5e-4 30 470 543 0 464
 474 465 0 +.1943444683817135 .152767642095 .2123455552669675 0 1 0 30 465 548 0
 460 470 461 0 -.200538661798604 .152767642095 .2089120577895365 0 1 0 30 461 55
3 0 456 465 457 0 -.193852259020986 .152767642095 .212821454358385 0 1 0 30 457
 558 0 452 461 491 0 +.193804077511619 .152767642095 .213822035641947 0 1 0 30 4
91 563 0 284 457 326 0 -.194307232703709 .152767642095 .2143460705935015 0 1 0 3
0 326 744 0 320 491 333 0 +.2052529799616165 .176767642095 .2205956413133455 0 1
 0 31 333 745 0 204 326 330 0 -.213448310643507 .172767642095 .2399304946878725
 0 1 0 0 0 1 .021 30 330 746 0 324 333 285 0 +.201735397266935 .174767642095 .22
25004155075325 0 1 0 30 285 797 0 280 330 294 0 -.200762530979934 .179267642095
 .220745318266289 0 1 0 31 294 801 0 283 285 290 0 +.213448310643507 .1792676420
95 .2399304946878725 0 1 0 0 0 1 .023 30 290 804 0 286 294 575 0 +.2042784390601
745 .176767642095 .2188375229876785 0 1 0 38 575 907 0 230 290 231 0 +576 577 57
8 579 580 16 230 1743 581 ?100 221 286 575 0 0 1 38 231 908 0 221 575 228 0 +576
 582 583 584 585 54 576 927 0 383 385 586 587 +.213448310643507 .179267642095 .2
399304946878725 0 1 0 .0255 .0025 0 0 1 50 255 577 296 0 431 433 582 588 +.20525
44037267415 .152767642095 .220598209853623 .874619707139393 0 -.484809620246343
 -.484809620246343 0 -.874619707139393 40 255 6 578 0 1 6 .0001424040075030624 .
338806554877849 ??.2030613553963075 .176767642095 .2166418459359015 .20346539077
26795 .176909500041252 .2173707450496955 .203823877089699 .177319325050084 .2180
1747148521 .2040957276599135 .177950422322501 .218507902896175 .2042498400333795
 .1787289891978265 .218785928977586 .2042784390601745 .179267642095 .21883752298
76785 41 3 CI8 term_use0 0 1 cCZ1 579 L?.2030613553963075 .176767642095 .2166418
459359015 41 1 580 L?.2042784390601745 .179267642095 .2188375229876785 14 431 25
9 589 ?423 186 590 5 577 +0 0 423 186 28 51 255 433 297 0 423 425 577 0 +.194236
289054998 .152767642095 .2048463354919995 0 1 0 .0095 .874619707139397 0 -.48480
9620246335 50 582 294 0 186 577 591 592 +.1969895191553265 .152767642095 .213938
624753493 -.874619707139397 0 .484809620246335 .484809620246336 0 .8746197071393
97 141 255 588 575 593 594 577 141 593 595 594 588 577 141 594 596 588 593 577 3
8 596 1755 0 597 598 595 0 +577 6 599 600 601 16 597 1753 602 ?50 603 604 596 0
 0 1 133 255 598 1748 0 346 605 596 0 +347 .2009828316507575 .176767642095 .2128
92089838464 .200487997983884 .176767642095 .2119993862725075 .00881082366685196
 .00983149992039319 38 595 1760 0 603 596 606 0 +577 607 608 609 610 40 6 599 0
 1 6 588876196536168e-19 .3431508617348945 ??.2009828316507575 .176767642095 .21
2892089838464 .201148269888923 .1767097922463905 .213190548320662 .2012950631083
21 .176541864299391 .213455370298606 .2014049581780075 .176284657899546 .2136536
2625239 .2014655479848575 .175971406597571 .2137629331574295 .201475877017509 .1
75767642095 .213781567225599 41 1 600 L?.2009828316507575 .176767642095 .2128920
89838464 41 1 601 L?.201475877017509 .175767642095 .213781567225599 16 603 1758
 611 ?56 612 597 595 0 0 1 38 606 1768 0 612 595 613 0 +576 614 615 616 617 56 2
55 607 1829 0 618 614 23 619 +R620 576 7 .001 .001 1 1 0 0 0 0 40 6 608 0 1 6 56
5934510177457e-19 .3380908349091755 ??.202703247623398 .1757756927622475 .215995
8024120395 .2027305103024 .1761048436391025 .216044985586895 .2028089536379895 .
176396857877378 .216186501110381 .2029302626383045 .1766209056421125 .2164053483
40094 .203081994844731 .1767517314886475 .2166790804865 .203155721237377 .176775
1736475905 .216812086419657 41 1 609 L?.202703247623398 .1757756927622475 .21599
58024120395 41 1 610 L?.203155721237377 .1767751736475905 .216812086419657 14 61
8 1815 621 ?18 622 623 5 607 +0 0 18 622 28 59 255 614 1769 0 1 624 607 625 +0 6
07 51 23 1828 0 1 607 19 626 +.194236289055 .174767642095 .204846335492001 0 1 0
 .015 0 0 1 141 619 624 627 628 607 51 620 1327 0 629 630 631 632 +.194236289055
 .174767642095 .204846335492001 0 1 0 .014 0 0 1 14 629 1309 633 ?634 635 636 5
 620 -0 0 634 635 28 51 630 1328 0 634 637 620 638 +.194236289055 .174767642095
 .204846335492001 0 1 0 .0115 0 0 1 50 631 1059 0 639 620 640 0 +.20185100186343
45 .168767642095 .2185836410410915 0 -1 0 -.874619707139397 0 .484809620246335 1
41 632 641 642 643 620 38 641 1645 0 644 645 646 0 +620 586 647 648 649 141 642
 605 650 632 620 141 643 651 632 650 620 38 651 1648 0 652 653 605 0 +620 654 65
5 656 657 141 650 607 643 642 620 16 652 1457 658 ?659 604 660 651 0 0 1 38 653
 1647 0 660 646 651 0 +654 630 661 662 663 38 605 1738 0 604 651 598 0 +620 624
 664 665 666 51 654 1691 0 622 586 624 667 +.1978641388624655 .173767642095 .213
4538151332465 -.484809620246335 0 -.874619707139397 .001 -.874619707139397 0 .48
4809620246335 40 6 655 0 1 6 572611423953138e-19 .340484333975068 ??.20013166726
051 .174767642095 .2175445446497525 .199827900698642 .1747109445150405 .21768120
51534615 .199555600552109 .174547501020999 .2177964291286015 .1993463291948605 .
17429489213568 .217880425017895 .1992268555928745 .1739826723556065 .21792663539
80065 .199204768794841 .173767642095 .217935040893025 41 1 656 L?.20013166726051
 .174767642095 .2175445446497525 41 1 657 L?.199204768794841 .173767642095 .2179
35040893025 14 622 1679 668 ?618 669 670 5 654 +0 0 618 669 28 51 586 1670 0 669
 576 654 671 +.204379784019602 .173767642095 .221083019473869 .484809620246343 0
 .874619707139393 .001 .874619707139393 0 -.484809620246343 59 624 1739 0 1 654
 614 672 +1 607 141 667 653 673 673 654 141 673 651 667 667 654 141 672 605 672
 672 624 14 669 1658 674 ?622 675 676 5 586 +0 0 622 675 28 141 671 641 677 677
 586 141 677 646 671 671 586 38 646 1646 0 678 641 653 0 +586 630 679 680 681 16
 678 1449 682 ?683 660 644 646 0 0 1 40 6 679 0 1 6 57704074503945e-18 .34203294
56068465 ??.200665100718194 .174767642095 .21438155340242 .2009393800169155 .174
7107873956455 .2141907761684825 .201178169186178 .174547017666308 .2140147759397
735 .2013574740117625 .1742935262194155 .213876215048871 .2014577854324615 .1739
80491919141 .2137961952713665 .201475877017509 .173767642095 .213781567225599 41
 1 680 L?.200665100718194 .174767642095 .21438155340242 41 1 681 L?.201475877017
509 .173767642095 .213781567225599 81 1 682 1710 222 678 0 0 684 658 685 17 683
 0 41 43 686 83 687 678 0 688 +16 660 1453 689 ?70 652 678 653 0 0 1 16 644 1445
 690 ?79 678 691 641 0 0 1 81 1 690 1715 222 644 0 0 692 225 693 17 79 0 636 694
 82 77 695 644 0 696 +16 691 1437 692 ?697 644 698 645 0 0 1 81 1 692 1714 222 6
91 0 0 699 690 700 17 697 0 34 36 67 63 701 691 0 0 +16 698 1427 699 ?73 691 227
 702 0 0 1 30 645 1439 0 691 702 641 0 +.1969895191553265 .173767642095 .2139386
24753493 -.484809620246335 0 -.874619707139397 30 702 1429 0 698 703 645 0 -.195
11090876214 .174767642095 .204361525871754 .484809620246343 0 .874619707139393 3
0 703 1424 0 227 228 702 0 -.1933616693478615 .174767642095 .205331145112247 -.4
84809620246335 0 -.874619707139397 16 227 1422 704 ?76 698 220 703 0 0 1 30 228
 1404 0 220 231 703 0 +.2052544037267415 .173767642095 .220598209853623 .4848096
20246343 0 .874619707139393 81 1 704 1712 222 227 0 0 658 699 705 17 76 0 706 69
6 707 74 708 227 0 694 +15 706 1320 0 696 675 0 17 696 0 706 73 76 77 694 709 0
 710 -17 707 0 706 76 73 68 686 711 0 708 +17 708 0 670 712 713 68 76 227 0 0 -1
7 694 0 636 659 79 74 696 709 0 713 +15 636 1312 0 714 629 0 17 659 0 636 714 69
4 65 713 652 0 701 +16 709 1411 715 ?694 711 0 716 0 0 1 17 713 0 670 708 701 74
 659 652 0 0 -15 670 1680 0 713 622 0 17 701 0 670 713 712 65 697 691 0 0 -17 71
2 0 670 701 708 63 70 660 0 697 -17 70 0 41 686 42 68 712 660 0 707 +15 41 1316
 0 43 634 0 17 686 0 41 683 70 71 707 711 0 687 -17 42 0 41 70 30 63 36 717 0 71
2 -17 36 0 34 32 697 33 42 717 0 37 +16 717 1265 718 ?36 719 720 721 0 0 1 81 1
 718 1869 222 717 0 0 229 722 723 16 719 1734 724 ?82 213 717 725 0 0 1 16 720 1
751 726 ?85 717 711 727 0 0 1 30 721 1334 0 717 727 725 0 +.1979773981889515 .17
4767642095 .2157208057065845 0 1 0 30 727 1335 0 720 728 721 0 -.201475877017509
 .174767642095 .213781567225599 0 1 0 30 725 1333 0 719 721 729 0 -.202703247623
398 .174767642095 .2159958024120395 0 1 0 30 729 1332 0 213 725 232 0 +.19920476
8794841 .174767642095 .217935040893025 0 1 0 16 213 1255 722 ?714 207 719 729 0
 0 1 31 232 1062 0 262 729 214 0 -.2018510018634345 .169267642095 .2185836410410
915 0 -1 0 -.874619707139397 0 .484809620246335 .0022 81 1 722 1870 222 213 0 0
 718 726 730 17 714 0 636 731 659 60 67 213 0 732 +17 731 0 636 82 714 57 732 60
4 0 733 +17 67 0 34 697 62 65 714 213 0 659 -17 732 0 623 734 59 60 731 604 0 0
 -15 623 1816 0 734 618 0 17 734 0 623 735 732 40 62 736 0 0 -17 59 0 623 732 73
5 57 56 603 0 731 -16 604 1736 737 ?731 597 652 605 0 0 1 81 1 737 1875 222 604
 0 0 611 738 739 81 1 611 1874 222 603 0 0 602 737 740 81 1 738 1876 222 38 0 0
 737 741 742 84 32 739 204e632a443945f28eb811fc43fd974116 38 1779 738 ?32 736 61
2 613 0 0 1 81 1 741 1877 222 612 0 0 738 29 743 84 32 742 8192e73d6e20416cad303
e931a45f2fe16 612 1766 741 ?45 38 603 606 0 0 1 81 1 29 1878 222 10 0 0 741 744
 745 84 32 743 7587634076617f2c8b2d80b7130301af81 1 744 1879 222 736 0 0 29 746
 747 84 32 745 0e0430a23c072231f35b1d3983e0777a16 736 1784 744 ?62 31 38 748 0 0
 1 81 1 746 1880 222 31 0 0 744 749 750 84 32 747 b95e237294be85d1be7045bc22e823
6916 31 1789 746 ?751 10 736 752 0 0 1 81 1 749 1881 222 186 0 304 746 753 754 8
4 32 750 6f9ad746d26f585ed45b4f89fa3e7c1114 186 251 755 ?431 295 34 5 582 +0 0 4
31 295 28 81 1 304 1958 276 186 749 755 296 434 756 81 1 753 1882 222 431 0 434
 749 757 758 84 32 754 69cd51de1bee6394a74be3f18a80663381 1 434 1960 276 431 753
 589 304 426 759 81 1 757 1883 222 16 0 760 753 761 762 84 32 758 1957d77f147642
49cd5e00bdf9114bd814 16 1183 763 ?315 0 764 5 765 +0 0 315 0 28 81 1 760 1944 27
6 16 757 763 0 318 766 81 1 761 1884 222 383 0 386 757 767 768 84 32 762 655685a
b8ef65816538625d53355321e14 383 915 769 ?770 375 771 5 576 -0 0 770 375 28 81 1
 386 1982 276 383 761 769 378 772 773 81 1 767 1885 222 634 0 774 761 775 776 84
 32 768 93ad55982b7d0e890ea1a89a21b1985614 634 1313 777 ?675 629 41 5 630 +0 0 6
75 629 28 81 1 774 1996 276 634 767 777 778 779 780 81 1 775 1886 222 629 0 778
 767 781 782 84 32 776 cccb2fcb718dc533ff205f644e6c9cf581 1 778 1994 276 629 775
 633 783 774 784 81 1 781 1887 222 618 0 785 775 786 787 84 32 782 51c461aa8ebd4
09bc8397be09a5d320081 1 785 2004 276 618 781 621 788 789 790 81 1 786 1888 222 1
8 0 789 781 0 791 84 32 787 1ea661a84012f5f36893ac35b289692314 18 1839 792 ?0 61
8 793 5 6 +0 0 0 618 28 81 1 789 2006 276 18 786 792 785 0 794 84 32 791 50ef54b
fd49975bf0f891357123af74280 1 276 795 796 8015 0 0 0 0 3 5 0 0 0 FFFFTFFFFFFFFF2
 81 1 792 2007 797 18 789 0 621 0 798 83 255 1 794 0 80 1 797 0 799 8001 0 0 0 0
 3 5 0 0 0 FFFFTFTFFFFFFF2 81 1 621 2005 797 618 785 0 668 792 800 83 3 798 1 0
 0 81 1 668 2003 797 622 788 0 674 621 801 83 3 800 1 0 0 81 1 788 2002 276 622
 802 668 803 785 804 81 1 674 2001 797 669 803 0 805 668 806 83 3 801 1 0 0 81 1
 803 2000 276 669 807 674 779 788 808 81 1 805 1999 797 675 779 0 777 674 809 83
 3 806 1 0 0 14 675 1317 805 ?669 634 706 5 637 +0 0 669 634 28 81 1 779 1998 27
6 675 810 805 774 803 811 81 1 777 1997 797 634 774 0 633 805 812 83 3 809 1 0 0
 81 1 633 1995 797 629 778 0 813 777 814 83 3 812 1 0 0 81 1 813 1993 797 635 78
3 0 815 633 816 83 3 814 1 0 0 14 635 1049 813 ?629 208 817 5 818 +0 0 629 208 2
8 81 1 783 1992 276 635 819 813 820 778 821 81 1 815 1991 797 208 820 0 822 813
 823 83 3 816 1 0 0 14 208 1045 815 ?635 639 192 5 640 -770 770 635 639 28 81 1
 820 1990 276 208 824 815 825 783 826 81 1 822 1989 797 639 825 0 827 815 828 83
 3 823 1 0 0 14 639 1041 822 ?208 217 829 5 631 +0 0 208 217 28 81 1 825 1988 27
6 639 830 822 831 820 832 81 1 827 1987 797 217 831 0 833 822 834 83 3 828 1 0 0
 14 217 1036 827 ?639 770 835 5 836 -0 0 639 770 28 81 1 831 1986 276 217 837 82
7 772 825 838 81 1 833 1985 797 770 772 0 769 827 839 83 3 834 1 0 0 14 770 1032
 833 ?217 383 840 5 640 -208 208 217 383 28 81 1 772 1984 276 770 841 833 386 83
1 842 81 1 769 1983 797 383 386 0 382 833 843 83 3 839 1 0 0 81 1 382 1981 797 3
75 378 0 374 769 844 83 3 843 1 0 0 81 1 374 1979 797 370 371 0 390 382 845 83 3
 844 1 0 0 81 1 390 1977 797 364 368 0 363 374 846 83 3 845 1 0 0 81 1 363 1975
 797 359 360 0 847 390 848 83 3 846 1 0 0 81 1 847 1973 797 199 367 0 398 363 84
9 83 3 848 1 0 0 14 199 283 847 ?359 394 197 5 591 -315 315 359 394 28 81 1 367
 1972 276 199 850 847 395 360 851 81 1 398 1971 797 394 395 0 406 847 852 83 3 8
49 1 0 0 81 1 406 1969 797 399 402 0 414 398 853 83 3 852 1 0 0 81 1 414 1967 79
7 407 410 0 422 406 854 83 3 853 1 0 0 81 1 422 1965 797 415 418 0 430 414 855 8
3 3 854 1 0 0 81 1 430 1963 797 423 426 0 589 422 856 83 3 855 1 0 0 81 1 589 19
61 797 431 434 0 755 430 857 83 3 856 1 0 0 81 1 755 1959 797 186 304 0 299 589
 858 83 3 857 1 0 0 81 1 299 1957 797 295 296 0 562 755 859 83 3 858 1 0 0 81 1
 562 1955 797 300 303 0 308 299 860 83 3 859 1 0 0 81 1 308 1953 797 272 278 0 2
71 562 861 83 3 860 1 0 0 81 1 271 1951 797 267 268 0 314 308 862 83 3 861 1 0 0
 81 1 314 1949 797 273 277 0 863 271 864 83 3 862 1 0 0 81 1 863 1947 797 315 31
8 0 763 314 865 83 3 864 1 0 0 14 315 981 863 ?273 16 866 5 591 -199 199 273 16
 28 81 1 318 1946 276 315 223 863 760 277 867 81 1 763 1945 797 16 760 0 0 863 8
68 83 3 865 1 0 0 83 3 868 1 0 0 81 1 223 1108 222 315 0 318 219 837 869 83 1 86
7 0 81 1 837 1109 222 217 0 831 223 830 870 84 32 869 1c859dcae8ce672490e4ca4e6b
47a78d81 1 830 1110 222 639 0 825 837 824 871 84 32 870 0097f36f687e9a9bf2e5d76c
ecbe358581 1 824 1111 222 208 0 820 830 819 872 84 32 871 e762b32d50470718bc7876
fbd0fc763381 1 819 1112 222 635 0 783 824 841 873 84 32 872 c9603246fc6ceb6535cf
c9a1276077a781 1 841 1113 222 770 0 772 819 850 874 84 32 873 c12ae73f8992b5e93b
f7f1f8d076cab081 1 850 1114 222 199 0 367 841 715 875 84 32 874 155e1489e78f585b
2ab72af55eb4861481 1 715 1706 222 709 0 0 850 684 876 84 32 875 98a6f954a56a165e
27378ddef7cbe86081 1 684 1709 222 711 0 0 715 682 877 84 32 876 ea9d9d001d2583e7
d7e8eb4f8c69eb5d16 711 1417 684 ?707 720 709 728 0 0 1 84 32 877 4b8fc2249430567
2245cd62cbc9b0b7431 728 1338 0 711 716 727 0 -.194236289055 .174767642095 .20484
6335492001 0 1 0 -.0480977871612841 0 .998842631684385 .0115 31 716 1339 0 709 0
 728 0 -.194236289055 .174767642095 .204846335492001 0 1 0 -.0480977871612841 0
 .998842631684385 .014 15 866 985 0 88 315 0 50 591 293 0 199 582 317 0 +.194236
289054998 .172767642095 .2048463354919995 0 1 0 .874619707139397 0 -.48480962024
6335 13 28 3 0 0 0 0 0 0 9 16 50 317 12 0 273 591 564 0 +.213448310643507 .17676
7642095 .2399304946878725 0 -1 0 0 0 -1 50 564 35 0 300 317 310 0 +.213448310643
507 .180767642095 .2399304946878725 0 -1 0 0 0 -1 51 310 46 0 272 564 275 0 -.21
3448310643507 .176767642095 .2399304946878725 0 1 0 .021 0 0 1 51 275 47 0 267 3
10 302 0 -.213448310643507 .176767642095 .2399304946878725 0 1 0 .023 0 0 1 52 2
55 302 102 0 295 275 366 0 -.213448310643507 .180767642095 .2399304946878725 0 1
 0 .0225 .447213595499958 .894427190999916 0 0 1 51 366 601 0 359 302 392 0 +.20
18328933440765 .152767642095 .209672473003007 0 1 0 5e-4 0 0 1 51 392 622 0 364
 366 377 0 +.2009588199815105 .152767642095 .209183105942706 0 1 0 5e-4 0 0 1 51
 377 643 0 370 392 385 0 +.194303498827461 .152767642095 .213846084535528 0 1 0
 5e-4 0 0 1 51 385 664 0 375 377 576 0 +.194351680336828 .152767642095 .21284550
32519655 0 1 0 5e-4 0 0 1 17 88 0 866 190 91 86 210 215 0 181 -17 190 0 866 878
 88 109 181 191 0 0 -17 91 0 866 88 879 89 174 250 0 252 -17 210 0 209 216 194 8
9 88 215 0 0 +17 879 0 866 91 161 112 526 247 0 0 -17 174 0 590 554 252 112 91 2
50 0 880 +17 252 0 590 174 203 89 881 248 0 218 +15 590 1204 0 733 431 0 17 203
 0 590 252 882 92 200 244 0 881 +17 881 0 840 218 218 92 252 248 0 216 -17 218 0
 840 881 881 89 216 212 0 210 -15 840 1035 0 881 770 0 17 882 0 590 203 883 108
 323 320 0 200 -17 200 0 197 198 94 108 203 244 0 0 -17 883 0 590 882 97 113 344
 341 0 0 -17 323 0 884 351 111 113 882 320 0 883 +15 884 38 0 351 272 0 17 351 0
 884 188 323 165 115 348 0 0 +17 111 0 884 323 188 108 198 204 0 882 +17 188 0 8
84 111 351 105 167 324 0 198 -17 167 0 34 885 107 165 188 324 0 337 +17 885 0 34
 103 167 168 337 334 0 558 -17 337 0 316 115 558 165 885 334 0 351 +15 316 10 0
 558 273 0 17 115 0 316 344 337 113 351 348 0 323 -17 558 0 316 337 344 168 886
 353 0 0 +17 344 0 316 558 115 95 883 341 0 0 +17 886 0 274 289 170 95 558 353 0
 344 -15 274 42 0 886 267 573 17 289 0 274 293 886 98 97 286 0 887 +17 170 0 274
 886 293 168 103 280 0 885 +17 293 0 274 170 289 101 887 283 0 888 +17 103 0 34
 185 885 101 170 280 0 293 -17 185 0 34 62 103 40 888 221 0 734 +17 62 0 34 67 1
85 60 734 736 0 714 +17 888 0 771 887 45 101 185 221 0 0 -15 771 916 0 889 383 0
 17 887 0 771 889 888 98 293 283 0 0 -17 45 0 771 888 889 40 735 612 0 185 +17 8
89 0 771 45 887 54 100 230 0 735 -17 735 0 623 59 734 54 45 612 0 0 -17 100 0 59
0 97 56 98 889 230 0 289 +17 97 0 590 883 100 95 289 286 0 886 -17 56 0 590 100
 733 54 59 603 0 889 +17 733 0 590 56 226 57 82 719 0 0 -17 226 0 590 733 85 80
 688 220 0 0 +17 82 0 636 79 731 80 733 719 0 695 +17 695 0 676 688 710 80 79 64
4 0 226 -15 676 1659 0 687 669 0 17 688 0 676 687 695 83 226 220 0 0 -17 710 0 6
76 695 687 77 73 698 0 0 -17 687 0 676 710 688 71 683 678 0 0 -17 73 0 706 707 6
96 71 710 698 0 686 +17 85 0 590 226 50 83 43 720 0 683 +17 50 0 590 85 890 46 5
3 597 0 43 +17 43 0 41 30 683 46 85 720 0 44 -17 44 0 793 53 37 46 30 10 0 0 -15
 793 1840 0 37 18 0 17 53 0 793 891 44 51 50 597 0 751 -17 37 0 793 44 891 33 32
 38 0 0 -17 891 0 793 37 53 11 751 31 0 0 -17 751 0 764 176 39 51 891 31 0 890 +
15 764 290 0 39 16 0 17 176 0 764 504 751 116 890 346 0 554 +17 39 0 764 751 178
 11 35 266 0 891 +17 890 0 590 50 554 51 176 346 0 0 -17 554 0 590 890 174 116 8
80 325 0 892 +16 346 1746 893 ?176 341 266 598 0 0 1 81 1 893 1865 222 346 0 0 8
02 894 895 16 266 209 894 ?39 346 262 340 334 334 1 81 1 894 1866 222 266 0 0 89
3 581 896 30 340 331 0 266 233 347 0 +.1969895191553265 .176767642095 .213938624
753493 .484809620246336 0 .874619707139397 31 233 1060 0 235 214 340 0 +.2018510
018634345 .168767642095 .2185836410410915 0 -1 0 -.874619707139397 0 .4848096202
46335 .0017 30 347 330 0 341 340 506 897 +.2052544037267415 .176767642095 .22059
8209853623 -.484809620246343 0 -.874619707139393 31 506 329 0 345 347 511 0 +.19
4236289054998 .176767642095 .2048463354919995 0 1 0 -.484809620246336 0 -.874619
707139397 .0095 141 897 598 897 897 347 30 511 328 0 505 506 516 0 +.20252555714
8364 .176767642095 .209487244290537 -.872554536143576 0 -.488516715635473 31 516
 327 0 510 511 520 0 +.194236289055001 .176767642095 .2048463354919995 0 -1 0 -.
484809620246336 0 -.874619707139397 .0075 30 520 326 0 515 516 523 0 +.193875555
651291 .176767642095 .2123376552296325 -.0480977871612835 0 .998842631684385 31
 523 325 0 206 520 555 0 +.194236289055001 .176767642095 .2048463354919995 0 1 0
 -.484809620246336 0 -.874619707139397 .0095 30 555 320 0 325 523 551 0 +.200487
997983884 .152767642095 .2119993862725075 0 1 0 30 551 318 0 546 555 196 0 +.196
9895191553265 .152767642095 .213938624753493 0 1 0 30 196 317 0 191 551 249 0 +.
192487049640721 .172767642095 .205815954732491 .484809620246335 0 .8746197071393
97 30 249 315 0 244 196 528 0 +.1959855284692785 .172767642095 .2038767162515055
 -.484809620246343 0 -.874619707139393 31 528 314 0 247 249 533 0 +.194236289054
998 .172767642095 .2048463354919995 0 1 0 0 0 1 .0095 30 533 313 0 527 528 538 0
 +.194236289054998 .172767642095 .204846335491999 -.872554536143576 0 -.48851671
5635473 31 538 312 0 532 533 543 0 -.194236289055001 .172767642095 .204846335491
9995 0 1 0 0 0 1 .0075 30 543 311 0 537 538 547 0 +.1942362890550005 .1727676420
95 .2048463354919995 -.0480977871612835 0 .998842631684385 31 547 310 0 542 543
 559 0 +.194236289055001 .172767642095 .2048463354919995 0 1 0 0 0 1 .0095 31 55
9 4 0 353 547 354 0 +.213448310643507 .176767642095 .2399304946878725 0 -1 0 -.5
16533353145698 0 .856267069954265 .023 81 1 581 1867 222 230 0 0 894 229 898 84
 32 896 65d840e78f9acb5cbc1f477457d91a7c81 1 229 1868 222 221 0 0 581 718 899 84
 32 898 bdb5a96fa1da95ca78530ad84d8e6b9084 32 899 2054a6caea5c2f681700c6b4a7a2de
da81 1 802 1724 222 622 0 788 807 893 900 84 32 895 9b4e88142a6735cd143177cb9711
e90381 1 807 1723 222 669 0 803 810 802 901 84 32 900 9cf5cf0c048deeeb746e87ee5e
a9e63b81 1 810 1720 222 675 0 779 689 807 902 84 32 901 8a8300d6beff80bf30f1d83d
0b38ef9181 1 689 1717 222 660 0 0 225 810 903 84 32 902 7872fc2201fbcde4383923b6
b2eb33c281 1 225 1716 222 220 0 0 690 689 904 84 32 903 3d79ed2c9f1d1606fcbfb092
d3b5688884 32 904 3f3d6c660ff111c28e48e72b8cb5a8ac17 880 0 432 526 892 112 554 3
25 0 879 -17 892 0 432 880 487 116 504 345 0 0 -15 432 266 0 526 423 0 17 487 0
 432 892 526 162 905 338 0 504 +17 504 0 764 158 176 162 892 345 0 0 +17 158 0 7
64 509 504 156 164 450 0 906 +17 509 0 764 152 158 153 906 505 0 0 +17 164 0 365
 905 907 162 158 450 0 487 -17 906 0 424 137 449 156 509 505 0 907 -15 424 270 0
 906 415 0 17 137 0 424 531 906 135 907 441 0 908 +17 449 0 424 906 531 153 909
 445 0 509 +17 907 0 365 164 910 156 137 441 0 0 -15 365 590 0 910 359 0 17 910
 0 365 907 905 135 161 469 0 0 -17 905 0 365 910 164 159 487 338 0 0 -17 161 0 8
66 879 908 159 910 469 0 526 +17 908 0 866 161 134 135 531 527 0 910 -17 526 0 4
32 487 880 159 879 247 0 905 +17 134 0 866 908 911 132 912 473 0 531 +17 531 0 4
24 449 137 132 908 527 0 909 +17 909 0 391 912 155 132 449 445 0 0 -15 391 611 0
 912 364 0 17 912 0 391 913 909 120 134 473 0 0 -17 155 0 391 909 913 153 152 49
4 0 449 -17 913 0 391 155 912 150 122 460 0 0 -17 152 0 764 514 509 150 155 494
 0 914 +17 514 0 764 146 152 147 914 510 0 0 +17 914 0 416 122 468 150 514 510 0
 913 -15 416 274 0 914 407 0 17 122 0 416 536 914 120 913 460 0 911 +17 468 0 41
6 914 536 147 915 464 0 514 +17 536 0 416 468 122 104 911 532 0 915 +17 915 0 38
4 916 149 104 468 464 0 0 -15 384 653 0 916 375 0 17 916 0 384 917 915 126 119 4
44 0 0 -17 149 0 384 915 917 147 146 436 0 468 -17 917 0 384 149 916 144 128 456
 0 0 -17 146 0 764 519 514 144 149 436 0 918 +17 519 0 764 140 146 141 918 515 0
 0 +17 918 0 408 128 455 144 519 515 0 917 -15 408 278 0 541 399 0 17 128 0 408
 541 918 126 917 456 0 919 +17 455 0 408 918 541 141 920 452 0 519 +17 541 0 408
 455 128 123 919 537 0 920 +17 920 0 376 921 143 123 455 452 0 0 -15 376 632 0 9
21 370 0 17 921 0 376 922 920 129 125 477 0 0 -17 143 0 376 920 922 141 140 439
 0 455 -17 922 0 376 143 921 138 131 284 0 0 -17 140 0 764 178 519 138 143 439 0
 923 +17 178 0 764 39 140 117 923 206 0 550 +17 923 0 400 131 550 138 178 206 0
 922 -15 400 282 0 923 394 0 17 131 0 400 172 923 129 922 284 0 878 +17 550 0 40
0 923 172 117 189 546 0 35 +17 172 0 400 550 131 109 878 542 0 189 +17 189 0 34
 181 35 109 550 546 0 190 -17 35 0 34 189 32 117 39 266 0 0 -17 878 0 866 125 19
0 129 172 542 0 921 -17 125 0 866 919 878 123 921 477 0 541 +17 919 0 866 119 12
5 126 541 537 0 916 -17 119 0 866 911 919 104 916 444 0 536 +17 911 0 866 134 11
9 120 536 532 0 912 -15 573 44 0 571 267 0 83 1 851 0 83 1 842 0 50 640 1058 0 2
08 631 836 0 +.2018510018634345 .172767642095 .2185836410410915 0 -1 0 -.8746197
07139397 0 .484809620246335 51 836 1057 0 217 640 818 0 -.2018510018634345 .1687
67642095 .2185836410410915 0 1 0 .0022 .874619707139397 0 -.484809620246335 54 8
18 1056 0 635 836 765 0 +.2018510018634345 .169267642095 .2185836410410915 0 -1
 0 .0017 5e-4 -.874619707139397 0 .484809620246335 50 765 302 0 16 818 401 0 +.1
94236289054998 .176767642095 .2048463354919995 0 1 0 .874619707139397 0 -.484809
620246335 51 401 301 0 394 765 409 0 +.194236289055001 .152767642095 .2048463354
919995 0 1 0 .0095 .874619707139397 0 -.484809620246335 50 409 300 0 399 401 417
 0 +.193875555651291 .152767642095 .2123376552296325 -.998842631684385 0 -.04809
77871612835 -.0480977871612835 0 .998842631684385 51 417 299 0 407 409 425 0 -.1
94236289055001 .152767642095 .2048463354919995 0 1 0 .0075 .874619707139397 0 -.
484809620246335 50 425 298 0 415 417 433 0 +.202525557148364 .152767642095 .2094
87244290537 .488516715635473 0 -.872554536143576 -.872554536143576 0 -.488516715
635473 83 1 838 0 15 835 1039 0 265 217 209 17 265 0 835 265 265 0 924 262 0 0 +
17 924 0 817 924 924 0 265 262 0 0 -15 817 1052 0 924 635 925 15 925 1053 0 926
 635 0 17 926 0 925 926 926 0 261 235 0 0 -17 261 0 829 261 261 0 926 235 0 0 +1
5 829 1044 0 261 639 0 83 1 832 0 83 1 826 0 83 1 821 0 83 1 811 0 50 637 1330 0
 675 0 630 0 +.194236289055 .174767642095 .204846335492001 0 1 0 0 0 1 83 1 808
 0 83 1 804 0 79 255 15 799 SDL/TYSA_COLOUR79 21 796 SDL/TYSA_TRANSLUCENCY83 1 7
90 0 83 1 784 0 83 1 780 0 83 1 773 0 83 1 766 0 83 1 759 0 83 1 756 0 31 752 17
91 0 31 748 21 0 +.194236289055 .176767642095 .204846335492001 0 1 0 0 0 1 .0105
 38 748 1786 0 736 613 752 0 +582 607 927 928 929 31 21 1798 0 10 752 7 0 -.1942
36289055 .175767642095 .204846335492001 0 1 0 0 0 1 .0115 38 613 1781 0 38 606 7
48 0 +582 6 930 931 932 40 6 927 0 1 6 578143810518281e-19 .3407654278907825 ??.
199652673264087 .176777084628435 .218743081945344 .199492402035303 .176690827933
2845 .218453944994822 .199355020519936 .1764999077325785 .218206102180408 .19925
66290399075 .176226421907143 .218028599251725 .1992086416902845 .175903785969938
 .2179420277813565 .199204768794841 .175778243880335 .217935040893025 41 1 928 L
?.199652673264087 .176777084628435 .218743081945344 41 1 929 L?.199204768794841
 .175778243880335 .217935040893025 40 6 930 0 1 6 561108726802385e-19 .338098063
105573 ??.1979773981889515 .175767642095 .2157208057065845 .197950307183434 .176
094781765541 .2156719322388925 .19787234385882 .176385011795647 .215531282678129
 .197751817881338 .176607962216474 .215313848059001 .1976004510222545 .176739592
8771575 .215040775016648 .1974843528222 .176767642095 .2148313283194495 41 1 931
 L?.1979773981889515 .175767642095 .2157208057065845 41 1 932 L?.1974843528222 .
176767642095 .2148313283194495 81 1 602 1873 222 597 0 0 724 611 933 84 32 740 7
1f44b806b2417c149e8fadfc22e75eb81 1 724 1872 222 719 0 0 726 602 934 84 32 933 6
1ba3cb5cffe3ca7764b4f5a712d9aeb81 1 726 1871 222 720 0 0 722 724 935 84 32 934 c
3bb38549b8b8aaa37deeabfbd7d004184 32 935 0ac51589a0b814dff05dfedfd42c79e184 32 7
30 2253a14aa74eb743e18a785d3f7a7a6084 32 723 80a51e0a8f3cc40cbba41525a54fc51881
 1 658 1711 222 652 0 0 682 704 936 81 1 699 1713 222 698 0 0 704 692 937 84 32
 705 85102dc702b16794f76b9bb77a8c4df784 32 937 a413b10901e1d8bc22d793f94b3e0fc38
4 32 936 7bdc645f548c6d6240d191312ffba93884 32 700 2cc5e04031c47b78b4011a6e0cc6d
81484 32 693 aac2fc824ff91b184425359e9d5e2b3c84 32 685 73b5908fc97420d719174fae5
2c0bcaf40 4 664 0 1 4 .0001465644731720126 .144886253389097 ??.199204768794841 .
175778243880335 .217935040893025 .2005151713024095 .1758013418644625 .2173593542
21435 .201019061052556 .175803500990002 .2170935394189865 .202703247623398 .1757
756927622475 .2159958024120395 41 1 665 L?.199204768794841 .175778243880335 .217
935040893025 41 1 666 L?.202703247623398 .1757756927622475 .2159958024120395 40
 6 661 0 1 6 56879090426743e-18 .338403679295242 ??.1979773981889515 .1737676420
95 .2157208057065845 .1980303589605625 .1740953582460865 .215702441310926 .19818
20459341865 .1743860879782695 .2156482335960545 .198415436031631 .17460996618585
05 .215560099095316 .198705229265451 .174741186860969 .2154424939183085 .1989158
613039155 .174767642095 .215351172642913 41 1 662 L?.1979773981889515 .173767642
095 .2157208057065845 41 1 663 L?.1989158613039155 .174767642095 .21535117264291
3 40 6 647 0 1 6 567155704379759e-19 .3380579605960055 ??.202703247623398 .17376
7642095 .2159958024120395 .202658456827507 .174096431776085 .2160296753335575 .2
025287898068995 .1743881283135845 .216126159572178 .202326123781433 .17461181508
13885 .216272383544543 .2020694644720315 .1747418718330035 .2164498419829725 .20
18809066747885 .174767642095 .2165749254092595 41 1 648 L?.202703247623398 .1737
67642095 .2159958024120395 41 1 649 L?.2018809066747885 .174767642095 .216574925
4092595 141 638 646 938 938 630 141 938 653 638 638 630 141 627 748 939 619 607
 141 628 595 619 939 607 141 939 614 628 627 607 54 19 1827 0 1 23 6 940 +.21344
8310643507 .179267642095 .2399304946878725 0 1 0 .0255 .0035 0 0 1 141 626 7 626
 626 23 141 940 7 940 940 19 141 625 606 625 625 614 40 4 615 0 1 4 752085707834
933e-19 .0746866001295028 ??.203155721237377 .1767751736475905 .216812086419657
 .2014353270675865 .17679325559143 .2178429117341655 .200894573077677 .176791713
3589015 .2181331791935855 .199652673264087 .176777084628435 .218743081945344 41
 1 616 L?.203155721237377 .1767751736475905 .216812086419657 41 1 617 L?.1996526
73264087 .176777084628435 .218743081945344 141 592 231 941 942 582 141 941 748 9
42 592 582 141 942 613 592 941 582 141 587 575 943 944 576 141 943 606 945 587 5
76 141 944 231 587 945 576 141 945 607 944 943 576 40 6 583 0 1 6 .0001409285448
362392 .337531581406987 ??.200762530979934 .179267642095 .220745318266289 .20069
43130339335 .178441964472395 .220622249833937 .2004974989358295 .177709389097949
 .2202671878020475 .2001939810381425 .1771512034507015 .2197196270200405 .199817
078085861 .176830099488438 .2190396760950215 .1995471673420835 .176767642095 .21
85527442235865 41 1 584 L?.200762530979934 .179267642095 .220745318266289 41 1 5
85 L?.1995471673420835 .176767642095 .2185527442235865 17 574 0 946 574 574 0 57
1 329 0 0 -15 946 29 0 574 300 0 17 568 0 563 568 568 0 947 352 0 0 +15 563 78 0
 568 300 946 17 947 0 948 947 947 0 568 352 0 0 -15 948 97 0 947 295 0 83 1 565
 0 83 1 435 0 83 1 427 0 83 1 419 0 83 1 411 0 83 1 403 0 83 1 393 0 83 1 387 0
 83 1 379 0 83 1 369 0 17 357 0 309 357 357 0 949 339 0 0 +15 309 84 0 357 272 8
84 17 949 0 301 949 949 0 357 339 0 0 -15 301 96 0 949 295 948 83 1 319 0 83 1 3
11 0 83 1 305 0 83 1 279 0 79 15 239 UGS/ObjectState84 32 224 852ae211084449e24e
39569e7ba102e619 17 49 0 1 0 9 5 S0 141 22 607 22 22 7 40 4 24 0 1 4 .0009743922
89673452 .3856991024259135 ??.1968064579405465 .1758498741187985 .21962450289867
8 .20096366289151 .1758013418644625 .2182531412735375 .201503544766667 .17580350
0990002 .2179683396994855 .2053866949926715 .175864093337582 .21487970219641 41
 1 25 L?.1968064579405465 .1758498741187985 .219624502898678 41 1 26 L?.20538669
49926715 .175864093337582 .21487970219641 141 20 596 950 950 6 141 950 613 20 20
 6 74 4 CI16 index_map_offset0 0 1 dCCZ20 15 7 0 0 786 951 952 13 789 792 2 0 0
 0 0 0 0 0 0 0 0 0 0 0 81 2 951 1889 953 1 0 952 0 0 954 955 81 1 952 1935 956 1
 951 13 0 0 957 81 1 13 1943 958 1 952 2 0 0 959 80 1 958 960 961 9000 0 0 0 0 3
 5 0 0 0 FFTFFFFFFFFFFF1 82 255 1 959 222 79 7 961 body_id80 1 956 962 963 9000
 0 0 0 0 3 5 0 0 0 FFTFFFFFFFFFFF1 82 1 957 -1 79 19 963 UG2/PMARK_ATTRIBUTE80 2
 953 964 965 8004 0 0 0 0 3 5 0 0 0 FFTFFFFFFFFFFF2 3 83 1 954 7830.64 84 8 955
 Kg/Cu M 79 16 965 SDL/TYSA_DENSITY80 1 12 966 967 9000 0 0 0 0 3 5 0 0 0 FFTFFF
FFFFFFFF1 82 1 14 186 79 24 967 UG2/BODY_COLOR_ATTRIBUTE1 0 
